<!-- Placeholder para projetos -->
<svg xmlns="http://www.w3.org/2000/svg" width="400" height="300" viewBox="0 0 400 300">
  <defs>
    <linearGradient id="projectGradient" x1="0%" y1="0%" x2="100%" y2="100%">
      <stop offset="0%" style="stop-color:#1a1a1a;stop-opacity:1" />
      <stop offset="100%" style="stop-color:#2a2a2a;stop-opacity:1" />
    </linearGradient>
  </defs>
  
  <rect width="400" height="300" fill="url(#projectGradient)"/>
  
  <!-- Browser mockup -->
  <rect x="20" y="20" width="360" height="260" fill="#f8fafc" rx="8"/>
  <rect x="20" y="20" width="360" height="30" fill="#e2e8f0" rx="8 8 0 0"/>
  
  <!-- Browser dots -->
  <circle cx="35" cy="35" r="4" fill="#ef4444"/>
  <circle cx="50" cy="35" r="4" fill="#f59e0b"/>
  <circle cx="65" cy="35" r="4" fill="#10b981"/>
  
  <!-- Content -->
  <rect x="40" y="70" width="200" height="20" fill="#C1FF00" rx="4"/>
  <rect x="40" y="100" width="280" height="10" fill="#cbd5e1" rx="5"/>
  <rect x="40" y="120" width="240" height="10" fill="#e2e8f0" rx="5"/>
  <rect x="40" y="140" width="300" height="10" fill="#cbd5e1" rx="5"/>
  
  <!-- CTA Button -->
  <rect x="40" y="170" width="100" height="30" fill="#C1FF00" rx="15"/>
  <text x="90" y="190" font-family="Inter, Arial, sans-serif" font-size="12" font-weight="600" text-anchor="middle" fill="#000">PROJETO</text>
  
  <!-- Stats -->
  <rect x="260" y="170" width="100" height="60" fill="#f1f5f9" rx="8"/>
  <text x="310" y="190" font-family="Inter, Arial, sans-serif" font-size="16" font-weight="bold" text-anchor="middle" fill="#000">+200%</text>
  <text x="310" y="205" font-family="Inter, Arial, sans-serif" font-size="10" text-anchor="middle" fill="#666">ROI</text>
</svg>