<!-- Placeholder para imagem about -->
<svg xmlns="http://www.w3.org/2000/svg" width="800" height="600" viewBox="0 0 800 600">
  <defs>
    <linearGradient id="screenGradient" x1="0%" y1="0%" x2="100%" y2="100%">
      <stop offset="0%" style="stop-color:#f8fafc;stop-opacity:1" />
      <stop offset="100%" style="stop-color:#e2e8f0;stop-opacity:1" />
    </linearGradient>
    <linearGradient id="accentGradient" x1="0%" y1="0%" x2="100%" y2="0%">
      <stop offset="0%" style="stop-color:#C1FF00;stop-opacity:1" />
      <stop offset="100%" style="stop-color:#A6E600;stop-opacity:1" />
    </linearGradient>
  </defs>
  
  <!-- Background -->
  <rect width="800" height="600" fill="#1a1a1a"/>
  
  <!-- Laptop mockup -->
  <rect x="100" y="150" width="600" height="400" fill="#2a2a2a" rx="20"/>
  <rect x="120" y="170" width="560" height="320" fill="url(#screenGradient)" rx="8"/>
  
  <!-- Screen content mockup -->
  <rect x="140" y="190" width="520" height="40" fill="url(#accentGradient)" rx="4"/>
  <text x="400" y="215" font-family="Inter, Arial, sans-serif" font-size="18" font-weight="600" text-anchor="middle" fill="#000">LANDING PAGE</text>
  
  <!-- Mock content lines -->
  <rect x="140" y="250" width="400" height="20" fill="#cbd5e1" rx="10"/>
  <rect x="140" y="280" width="320" height="20" fill="#e2e8f0" rx="10"/>
  <rect x="140" y="310" width="480" height="20" fill="#cbd5e1" rx="10"/>
  
  <!-- Mock buttons -->
  <rect x="140" y="350" width="120" height="40" fill="url(#accentGradient)" rx="20"/>
  <text x="200" y="375" font-family="Inter, Arial, sans-serif" font-size="14" font-weight="600" text-anchor="middle" fill="#000">CTA BUTTON</text>
  
  <!-- Mock stats -->
  <rect x="450" y="350" width="150" height="80" fill="#f1f5f9" rx="8"/>
  <text x="525" y="375" font-family="Inter, Arial, sans-serif" font-size="24" font-weight="bold" text-anchor="middle" fill="#000">+150%</text>
  <text x="525" y="395" font-family="Inter, Arial, sans-serif" font-size="12" text-anchor="middle" fill="#666">Conversão</text>
  
  <!-- Laptop base -->
  <rect x="80" y="530" width="640" height="20" fill="#2a2a2a" rx="10"/>
</svg>